<?xml version="1.0" encoding="UTF-8"?>
<svg id="Capa_2" data-name="Capa 2" xmlns="http://www.w3.org/2000/svg" viewBox="0 0 16.25 18.93">
  <defs>
    <style>
      .cls-1 {
        fill: #fff;
      }
    </style>
  </defs>
  <g id="Capa_1-2" data-name="Capa 1">
    <path class="cls-1" d="m14.2,0H2.05C.92,0,0,.92,0,2.05v14.83c0,1.13.92,2.05,2.05,2.05h12.15c1.13,0,2.05-.92,2.05-2.05V2.05c0-1.13-.92-2.05-2.05-2.05ZM4.89,1.83c.49,0,.89.4.89.89s-.4.89-.89.89-.89-.4-.89-.89.4-.89.89-.89Zm-3.06.89c0-.49.4-.89.89-.89s.89.4.89.89-.4.89-.89.89-.89-.4-.89-.89Zm6.29,13.53c-3.09,0-5.6-2.51-5.6-5.6s2.51-5.6,5.6-5.6,5.6,2.51,5.6,5.6-2.51,5.6-5.6,5.6Z"/>
  </g>
</svg>